<?xml version="1.0" encoding="UTF-8"?>
<svg id="Livello_1" data-name="Livello 1" xmlns="http://www.w3.org/2000/svg" viewBox="0 0 319.97 351.25">
  <defs>
    <style>
      .cls-1 {
        fill: #fff;
      }
    </style>
  </defs>
  <path d="M215.46,303.38c-4.35,27.85-27.77,47.7-55.12,47.87-27.56.17-51.56-19.78-55.77-47.85l-75.04-.02c-12.92,0-23.7-8.1-27.74-19.27-4.53-12.53-.22-25.87,10.27-33.69l12.11-9.02c5.44-4.05,8.94-9.35,10.08-16.26l16.61-100.66c6.88-41.71,36.68-75.6,77.33-87.94C125.83,16.81,140.57.19,159.68,0c18.96-.19,34.53,16.11,32.03,36.43,40.71,12.42,70.58,46.39,77.54,88.67l16.47,100.03c1.09,6.65,4.42,11.99,9.66,15.9l12.49,9.34c10.33,7.72,14.71,20.71,10.5,33.17-3.87,11.45-14.77,19.83-27.94,19.83h-74.98ZM175.97,32.76c.22-10.24-7.63-16.95-16.37-16.78s-16.12,7.48-15.51,16.93c10.83-1.33,20.96-1.09,31.88-.15ZM290.72,287.38c6.81,0,11.14-4.63,12.66-9.53,1.66-5.36-.33-11.05-4.83-14.45l-12.81-9.65c-8.36-6.3-13.97-15.03-15.71-25.62l-16.55-100.58c-7.59-46.11-46.69-79.74-93.55-79.71-45.31.02-85.29,32.05-92.8,77.12l-17.18,103.17c-1.72,10.31-7.04,19.05-15.23,25.25l-13.26,10.04c-4.73,3.58-6.63,9.52-4.67,15.03,1.81,5.11,6.48,8.95,12.87,8.95h261.08ZM199.06,303.39h-78.24c4.04,19.14,20.75,32.03,39.54,31.88,18.34-.14,35-13.04,38.7-31.88Z"/>
  <path class="cls-1" d="M290.72,287.38H29.64c-6.39,0-11.06-3.83-12.87-8.94-1.95-5.51-.05-11.45,4.67-15.03l13.26-10.04c8.19-6.2,13.51-14.93,15.23-25.25l17.18-103.17c7.51-45.07,47.49-77.1,92.8-77.12,46.86-.02,85.96,33.6,93.55,79.71l16.55,100.58c1.74,10.59,7.35,19.32,15.71,25.62l12.81,9.65c4.5,3.39,6.5,9.09,4.83,14.45-1.52,4.9-5.85,9.53-12.66,9.53Z"/>
  <path class="cls-1" d="M199.06,303.39c-3.71,18.84-20.36,31.74-38.7,31.88-18.79.14-35.49-12.75-39.54-31.88h78.24Z"/>
  <path class="cls-1" d="M175.97,32.76c-10.92-.94-21.06-1.18-31.88.15-.61-9.45,6.77-16.77,15.51-16.93s16.59,6.55,16.37,16.78Z"/>
</svg>